<svg xmlns="http://www.w3.org/2000/svg" width="256" height="256" viewBox="0 0 24 24"><g fill="#E5E6E8" fill-rule="evenodd"><path d="M5 6.25a.75.75 0 0 0-.746.832l1.75 16a.75.75 0 0 0 .746.668h10.5a.75.75 0 0 0 .746-.668l1.75-16A.75.75 0 0 0 19 6.25H5Z"/><path fill="#607D8B" d="M14.26.877A.75.75 0 0 1 15 .25h5a.75.75 0 0 1 0 1.5h-4.364L13.74 13.123a.75.75 0 1 1-1.48-.246l2-12Z"/><path fill="#ADD9FC" d="M17.813 12.058a7.596 7.596 0 0 0-5.574.484 6.095 6.095 0 0 1-4.715.31L5.9 12.29a.75.75 0 0 0-.99.79l1.093 10a.75.75 0 0 0 .746.669h10.5a.75.75 0 0 0 .746-.669l1.093-10a.75.75 0 0 0-.53-.8l-.746-.223Z"/><path fill="#2196F3" d="M13.47 15.47a.75.75 0 0 1 1.06 0l1 1a.75.75 0 1 1-1.06 1.06l-1-1a.75.75 0 0 1 0-1.06ZM11.53 18.47a.75.75 0 0 1 0 1.06l-1 1a.75.75 0 1 1-1.06-1.06l1-1a.75.75 0 0 1 1.06 0Z"/></g></svg>