<svg xmlns="http://www.w3.org/2000/svg" width="256" height="256" viewBox="0 0 24 24"><g fill="#607D8B" fill-rule="evenodd"><path d="M4 20.25a.75.75 0 0 1 .75.75v2a.75.75 0 0 1-1.5 0v-2a.75.75 0 0 1 .75-.75ZM20 20.25a.75.75 0 0 1 .75.75v2a.75.75 0 0 1-1.5 0v-2a.75.75 0 0 1 .75-.75Z"/><path fill="#2196F3" d="M19.738 4.866a.75.75 0 0 0-1.017-.562l-2.5 1a.75.75 0 0 0-.463.807l1.5 10a.75.75 0 0 0 .742.639h3a.75.75 0 0 0 .738-.884l-2-11Z"/><path fill="#90A7B2" d="M23.75 17.095a1.75 1.75 0 0 0-1.908-1.743l-20 1.818A1.75 1.75 0 0 0 .25 18.913V20c0 .967.784 1.75 1.75 1.75h20A1.75 1.75 0 0 0 23.75 20v-2.905Z"/><path fill="#59B4FD" d="M19 .25a.75.75 0 0 1 .75.75v4a.75.75 0 0 1-.513.712l-6 2a.75.75 0 0 1-.474-1.424L18.25 4.46V1A.75.75 0 0 1 19 .25Z"/><path fill="#FAFAFA" d="M17.25 19a.75.75 0 0 1 .75-.75h3a.75.75 0 0 1 0 1.5h-3a.75.75 0 0 1-.75-.75Z"/></g></svg>