<svg xmlns="http://www.w3.org/2000/svg" id="Layer_1" width="256" height="256" data-name="Layer 1" viewBox="0 0 21.5 21.5"><defs><style>.cls-2{fill:#cfd8dc}.cls-2,.cls-3{fill-rule:evenodd}.cls-4{fill:#2196f3}</style></defs><path d="M9.23 2.52C8.34 1.63 6.78.77 5.24.32 4.47.09 3.66-.04 2.91 0 2.17.05 1.41.28.84.84.28 1.41.05 2.17 0 2.91c-.05.75.09 1.56.31 2.33.44 1.53 1.31 3.09 2.2 3.99 1.85 1.85 4.86 1.85 6.72 0a4.744 4.744 0 0 0 0-6.72Z" style="fill:#cfd8dc"/><path d="M8.22 8.22c.29-.29.77-.29 1.06 0l5.5 5.5c.29.29.29.77 0 1.06s-.77.29-1.06 0l-5.5-5.5a.754.754 0 0 1 0-1.06Z" class="cls-2"/><path d="M13.78 7.72a.754.754 0 0 0-1.06 0l-6 6c-.29.29-.29.77 0 1.06.29.29.77.29 1.06 0l6-6c.29-.29.29-.77 0-1.06Z" class="cls-2"/><path d="M18.78 2.72c.29.29.29.77 0 1.06l-5 5c-.29.29-.77.29-1.06 0a.754.754 0 0 1 0-1.06l5-5c.29-.29.77-.29 1.06 0Z" class="cls-2"/><path d="M16.28 12.22a.754.754 0 0 0-1.06 0l-3 3c-.29.29-.29.77 0 1.06l5 5c.29.29.77.29 1.06 0l3-3c.29-.29.29-.77 0-1.06l-5-5Z" class="cls-4"/><path d="M16.28.22c.29.29.29.77 0 1.06L13.4 4.16c-.88.88-.88 2.3 0 3.18l.76.76c.88.88 2.3.88 3.18 0l2.88-2.88c.29-.29.77-.29 1.06 0 .29.29.29.77 0 1.06L18.4 9.16a3.754 3.754 0 0 1-5.3 0l-.76-.76a3.754 3.754 0 0 1 0-5.3L15.22.22c.29-.29.77-.29 1.06 0Z" class="cls-2"/><path d="M5.22 12.22c.29-.29.77-.29 1.06 0l3 3c.29.29.29.77 0 1.06l-5 5c-.29.29-.77.29-1.06 0l-3-3a.754.754 0 0 1 0-1.06l5-5Z" class="cls-4"/><path d="M3 1.51c-.53.03-.88.18-1.1.4-.22.22-.37.57-.4 1.1-.03.53.06 1.16.25 1.83.39 1.35 1.15 2.67 1.82 3.34a3.253 3.253 0 0 0 4.6-4.6c-.67-.67-1.99-1.43-3.34-1.82-.67-.19-1.3-.29-1.83-.25ZM5.25.32c1.53.44 3.09 1.31 3.99 2.2a4.744 4.744 0 0 1 0 6.72 4.762 4.762 0 0 1-6.72 0C1.63 8.35.77 6.79.32 5.25.09 4.47-.04 3.66 0 2.91c.05-.74.28-1.5.84-2.07C1.41.28 2.17.05 2.91 0c.75-.05 1.56.09 2.33.31Z" class="cls-3"/><path d="M8.22 8.22c.29-.29.77-.29 1.06 0l5.5 5.5c.29.29.29.77 0 1.06s-.77.29-1.06 0l-5.5-5.5a.754.754 0 0 1 0-1.06Z" class="cls-3"/><path d="M13.78 7.72a.754.754 0 0 0-1.06 0l-6 6c-.29.29-.29.77 0 1.06.29.29.77.29 1.06 0l6-6c.29-.29.29-.77 0-1.06Z" class="cls-3"/><path d="M18.78 2.72c.29.29.29.77 0 1.06l-5 5c-.29.29-.77.29-1.06 0a.754.754 0 0 1 0-1.06l5-5c.29-.29.77-.29 1.06 0ZM15.22 12.22c.29-.29.77-.29 1.06 0l5 5c.29.29.29.77 0 1.06l-3 3c-.29.29-.77.29-1.06 0l-5-5a.754.754 0 0 1 0-1.06l3-3Zm-1.41 3.53 3.94 3.94 1.94-1.94-3.94-3.94-1.94 1.94Z" class="cls-3"/><path d="M16.28.22c.29.29.29.77 0 1.06L13.4 4.16c-.88.88-.88 2.3 0 3.18l.76.76c.88.88 2.3.88 3.18 0l2.88-2.88c.29-.29.77-.29 1.06 0 .29.29.29.77 0 1.06L18.4 9.16a3.754 3.754 0 0 1-5.3 0l-.76-.76a3.754 3.754 0 0 1 0-5.3L15.22.22c.29-.29.77-.29 1.06 0ZM6.28 12.22a.754.754 0 0 0-1.06 0l-5 5c-.29.29-.29.77 0 1.06l3 3c.29.29.77.29 1.06 0l5-5c.29-.29.29-.77 0-1.06l-3-3Zm1.41 3.53-3.94 3.94-1.94-1.94 3.94-3.94 1.94 1.94Z" class="cls-3"/></svg>